<svg width="34" height="34" viewBox="0 0 34 34" fill="none" xmlns="http://www.w3.org/2000/svg">
<path d="M18.6435 5.42365L17.0025 0.899902H5.0172L7.86117 3.74387C3.63175 6.65882 0.853516 11.5351 0.853516 17.0489L4.79331 18.0058L9.49414 17.0489C9.49414 13.8987 11.4453 11.1971 14.2018 10.0844L17.0025 12.8852V9.54053L18.6435 5.42365Z" fill="#424EDD"/>
<path d="M33.1396 16.4467L33.1519 5.06359L30.308 7.90756C27.393 3.67814 22.5167 0.899902 17.0029 0.899902V9.54053C20.1531 9.54053 22.8547 11.4917 23.9674 14.2481L21.1666 17.049H33.1389H33.1519C33.1519 16.8472 33.1469 16.6467 33.1396 16.4467Z" fill="#1C259D"/>
<path d="M17.0025 24.5587C13.8522 24.5587 11.1507 22.6075 10.0381 19.8511L12.8388 17.0503H0.853516V29.0356L3.69749 26.1916C6.61244 30.4211 11.4887 33.1993 17.0025 33.1993L19.2613 28.933L17.0025 24.5587Z" fill="white"/>
<path d="M30.308 26.1907C27.393 30.4201 22.5167 33.1983 17.0029 33.1983V24.5577C20.1531 24.5577 22.8547 22.6066 23.9674 19.8501L30.308 26.1907Z" fill="#D1D1D6"/>
</svg>
