<svg width="56" height="57" viewBox="0 0 56 57" fill="none" xmlns="http://www.w3.org/2000/svg">
<path d="M16.2812 30.1235H6.90625C6.25928 30.1235 5.73438 30.6481 5.73438 31.2954V49.2642C5.73438 49.9115 6.25927 50.436 6.90625 50.436H16.2812C16.9282 50.436 17.4531 49.9115 17.4531 49.2642V31.2954C17.4531 30.6481 16.9282 30.1235 16.2812 30.1235ZM15.1093 48.0923H8.07812V32.4673H15.1093V48.0923Z" fill="#0B3546"/>
<path d="M30.3437 22.311H24.4455C23.7985 22.311 23.2736 22.8356 23.2736 23.4829C23.2736 24.1303 23.7985 24.6548 24.4455 24.6548H29.1719V48.0923H22.1406V31.2954C22.1406 30.6481 21.6157 30.1235 20.9688 30.1235C20.3218 30.1235 19.7969 30.6481 19.7969 31.2954V49.2642C19.7969 49.9115 20.3218 50.436 20.9688 50.436H30.3437C30.9907 50.436 31.5156 49.9115 31.5156 49.2642V23.4829C31.5156 22.8356 30.9907 22.311 30.3437 22.311Z" fill="#0B3546"/>
<path d="M50.0311 18.8545L40.6562 6.34793C40.2129 5.7563 39.2234 5.75784 38.7809 6.34793L29.4066 18.8552C29.1404 19.2106 29.0977 19.6858 29.296 20.0831C29.4944 20.4805 29.9003 20.7312 30.3443 20.7312H33.8591V49.2635C33.8591 49.9112 34.384 50.436 35.031 50.436H44.4068C45.0537 50.436 45.5786 49.9112 45.5786 49.2635V20.7309L49.0935 20.7305C49.5375 20.7305 49.9434 20.4793 50.1418 20.0824C50.3401 19.685 50.2974 19.2098 50.0311 18.8545ZM44.4068 18.3861C43.7598 18.3861 43.2349 18.9113 43.2349 19.5587V48.0909H36.2029V19.5587C36.2029 18.9109 35.678 18.3861 35.031 18.3861H32.688L39.7185 9.00566L46.7497 18.3857L44.4068 18.3861Z" fill="#0B3546"/>
<path d="M16.8634 5.90479C10.7271 5.90479 5.73438 10.8971 5.73438 17.0334C5.73438 23.1697 10.727 28.162 16.8634 28.162C22.9997 28.162 27.9924 23.1697 27.9924 17.0334C27.9924 10.8971 22.9997 5.90479 16.8634 5.90479ZM21.0367 15.7334C20.8062 15.9756 20.4973 16.0977 20.1875 16.0977C19.8976 16.0977 19.6069 15.9905 19.3796 15.7749L18.0353 14.4962V22.3026C18.0353 22.95 17.5104 23.4745 16.8634 23.4745C16.2164 23.4745 15.6915 22.95 15.6915 22.3026V14.4962L14.3472 15.7749C13.8772 16.2201 13.1357 16.2022 12.6901 15.7334C12.2438 15.2645 12.2629 14.5226 12.7313 14.0766L16.0554 10.915C16.5086 10.4847 17.2181 10.4847 17.6713 10.915L20.9955 14.0766C21.4639 14.5226 21.483 15.2645 21.0367 15.7334Z" fill="#48B96D"/>
</svg>
