<svg width="56" height="56" viewBox="0 0 56 56" fill="none" xmlns="http://www.w3.org/2000/svg">
<path d="M20.5637 33.8055L20.5638 33.8056L27.5135 40.7455C27.6436 40.8875 27.8254 40.9539 28 40.9539C28.1748 40.9539 28.3567 40.8874 28.4869 40.7452C28.7566 40.4716 28.7554 40.0448 28.4832 39.7726L21.5399 32.8293C21.2664 32.5559 20.8371 32.5559 20.5637 32.8293C20.2902 33.1027 20.2902 33.5321 20.5637 33.8055Z" fill="#48B96D" stroke="#48B96D" stroke-width="0.4"/>
<path d="M27.5131 43.5967C27.6433 43.7389 27.8252 43.8055 28 43.8055C28.1785 43.8055 28.3568 43.7366 28.493 43.6004L35.4363 36.657C35.7098 36.3836 35.7098 35.9543 35.4363 35.6808C35.1629 35.4074 34.7336 35.4074 34.4601 35.6808L27.5168 42.6242C27.2446 42.8964 27.2434 43.3232 27.5131 43.5967Z" fill="#48B96D" stroke="#48B96D" stroke-width="0.4"/>
<path d="M19.1379 15.168C19.1379 20.0538 23.1142 24.0301 28 24.0301C32.8856 24.0301 36.8621 20.0639 36.8621 15.1777C36.8621 10.2919 32.8858 6.31562 28 6.31562C23.1144 6.31562 19.1379 10.2818 19.1379 15.168ZM20.5145 15.1777C20.5145 11.0499 23.8722 7.69219 28 7.69219C32.1278 7.69219 35.4855 11.0499 35.4855 15.1777C35.4855 19.3056 32.1278 22.6633 28 22.6633C23.8722 22.6633 20.5145 19.3056 20.5145 15.1777Z" fill="#0B3546" stroke="#0B3546" stroke-width="0.4"/>
<path d="M25.1926 17.2871C25.1926 18.8331 26.454 20.0945 28 20.0945C29.546 20.0945 30.8074 18.8331 30.8074 17.2871C30.8074 15.7411 29.546 14.4797 28 14.4797C27.212 14.4797 26.5691 13.8368 26.5691 13.0488C26.5691 12.2608 27.212 11.618 28 11.618C28.788 11.618 29.4309 12.2608 29.4309 13.0488C29.4309 13.4327 29.7352 13.7371 30.1191 13.7371C30.503 13.7371 30.8074 13.4327 30.8074 13.0488C30.8074 11.5028 29.546 10.2414 28 10.2414C26.454 10.2414 25.1926 11.5028 25.1926 13.0488C25.1926 14.5948 26.454 15.8563 28 15.8563C28.788 15.8563 29.4309 16.4991 29.4309 17.2871C29.4309 18.0751 28.788 18.718 28 18.718C27.212 18.718 26.5691 18.0751 26.5691 17.2871C26.5691 16.9032 26.2648 16.5988 25.8809 16.5988C25.497 16.5988 25.1926 16.9032 25.1926 17.2871Z" fill="#48B96D" stroke="#48B96D" stroke-width="0.4"/>
<path d="M27.3117 10.9395C27.3117 11.3233 27.6161 11.6277 28 11.6277C28.3812 11.6277 28.6883 11.326 28.6883 10.9492V9.76758C28.6883 9.38368 28.3839 9.0793 28 9.0793C27.6161 9.0793 27.3117 9.38368 27.3117 9.76758V10.9395Z" fill="#48B96D" stroke="#48B96D" stroke-width="0.4"/>
<path d="M27.3117 20.5781C27.3117 20.962 27.6161 21.2664 28 21.2664C28.3839 21.2664 28.6883 20.962 28.6883 20.5781V19.4062C28.6883 19.0224 28.3839 18.718 28 18.718C27.6161 18.718 27.3117 19.0224 27.3117 19.4062V20.5781Z" fill="#48B96D" stroke="#48B96D" stroke-width="0.4"/>
<path d="M17.1797 49.6844H38.8203C39.1918 49.6844 39.5086 49.3826 39.5086 48.9961C39.5086 47.1864 38.0421 45.7199 36.2324 45.7199H19.7676C17.9579 45.7199 16.4914 47.1864 16.4914 48.9961C16.4914 49.38 16.7958 49.6844 17.1797 49.6844ZM38.0003 48.3078H17.9997C18.2793 47.602 18.9678 47.0965 19.7676 47.0965H36.2324C37.0322 47.0965 37.7207 47.602 38.0003 48.3078Z" fill="#0B3546" stroke="#0B3546" stroke-width="0.4"/>
<path d="M15.971 34.1847L15.971 34.1849C16.4289 35.884 17.7125 37.168 19.4115 37.6263C19.8412 37.749 20.2696 37.7996 20.6954 37.7996C21.9593 37.7996 23.1823 37.3001 24.099 36.3734C25.34 35.132 25.8194 33.379 25.3612 31.6784C24.9032 29.9788 23.619 28.6946 21.9193 28.2366L21.9191 28.2365L14.9388 26.3621C14.6997 26.2928 14.4517 26.365 14.2775 26.5375C14.0958 26.7073 14.0285 26.9695 14.0965 27.2044L15.971 34.1847ZM17.3046 33.8369L15.7438 28.0094L21.5705 29.5699C21.5706 29.57 21.5708 29.57 21.5709 29.57C22.7919 29.9032 23.7141 30.8264 24.0373 32.036C24.3606 33.246 24.0193 34.5104 23.1321 35.3977L23.1314 35.3984C22.2453 36.2937 20.9916 36.6264 19.7708 36.303C18.5494 35.9697 17.6278 35.0559 17.3047 33.8374L17.3046 33.8369Z" fill="#48B96D" stroke="#48B96D" stroke-width="0.4"/>
<path d="M30.6291 34.5398L30.6291 34.5398L30.6288 34.5409C30.1811 36.2401 30.6497 37.9931 31.8917 39.2352C32.8177 40.1612 34.0404 40.6609 35.3046 40.6609C35.7338 40.6609 36.1614 40.5996 36.5772 40.4881L36.5774 40.488C38.277 40.0301 39.5612 38.7458 40.0192 37.0462L40.0193 37.046L41.8937 30.0657C41.963 29.8266 41.8908 29.5786 41.7184 29.4043C41.5486 29.2227 41.2863 29.1554 41.0515 29.2234L34.0711 31.0979L34.071 31.0979C32.3713 31.5559 31.0871 32.8401 30.6291 34.5398ZM34.4286 32.4217L40.2562 30.8609L38.6957 36.6876C38.6956 36.6877 38.6956 36.6878 38.6956 36.6879C38.3623 37.9095 37.4485 38.8312 36.2299 39.1543L36.2296 39.1544C35.0201 39.4776 33.7649 39.1369 32.8672 38.2485C31.9718 37.3624 31.6392 36.1086 31.9626 34.8879C32.296 33.6665 33.2097 32.7449 34.4282 32.4218L34.4286 32.4217Z" fill="#48B96D" stroke="#48B96D" stroke-width="0.4"/>
<path d="M27.3117 46.4082C27.3117 46.7921 27.6161 47.0965 28 47.0965C28.3839 47.0965 28.6883 46.7921 28.6883 46.4082V23.3418C28.6883 22.9579 28.3839 22.6535 28 22.6535C27.6161 22.6535 27.3117 22.9579 27.3117 23.3418V46.4082Z" fill="#0B3546" stroke="#0B3546" stroke-width="0.4"/>
</svg>
