<svg width="56" height="57" viewBox="0 0 56 57" fill="none" xmlns="http://www.w3.org/2000/svg">
<g clip-path="url(#clip0_198_5046)">
<path d="M50.8027 9.02979H36.1123C34.9834 5.62939 31.7734 3.17041 28 3.17041C24.2266 3.17041 21.0166 5.62939 19.8877 9.02979H5.19727C3.98535 9.02979 3 10.0151 3 11.2271V12.2036C3 13.4155 3.98535 14.4009 5.19727 14.4009H19.8877C20.7354 16.9556 22.7588 18.979 25.3145 19.8276V40.2056C24.1592 40.3667 23.0186 40.6313 21.9092 41.0015C21.6104 41.1011 21.4082 41.3813 21.4082 41.6968V47.8003H12.375C11.1631 47.8003 10.1777 48.7856 10.1777 49.9976V52.439C10.1777 52.8433 10.5059 53.1714 10.9102 53.1714H45.0898C45.4941 53.1714 45.8223 52.8433 45.8223 52.439V49.9976C45.8223 48.7856 44.8369 47.8003 43.625 47.8003H34.5918V41.6968C34.5918 41.3813 34.3896 41.1021 34.0908 41.0015C32.9814 40.6313 31.8408 40.3667 30.6855 40.2056V19.8276C33.2402 18.98 35.2637 16.9565 36.1123 14.4009H50.8027C52.0146 14.4009 53 13.4155 53 12.2036V11.2271C53 10.0151 52.0146 9.02979 50.8027 9.02979ZM28 4.63525C31.9043 4.63525 35.0801 7.81104 35.0801 11.7153C35.0801 12.5747 34.9258 13.3989 34.6445 14.1616C33.7246 13.0269 32.5215 12.1392 31.1689 11.5952C31.4824 11.0552 31.6631 10.4302 31.6631 9.76221C31.6631 7.74268 30.0205 6.1001 28.001 6.1001C25.9814 6.1001 24.3389 7.74268 24.3389 9.76221C24.3389 10.4302 24.5195 11.0562 24.833 11.5952C23.4795 12.1392 22.2773 13.0259 21.3574 14.1616C21.0762 13.3989 20.9219 12.5747 20.9219 11.7153C20.9219 7.81104 24.0977 4.63525 28.002 4.63525H28ZM25.8027 9.76221C25.8027 8.55029 26.7881 7.56494 28 7.56494C29.2119 7.56494 30.1973 8.55029 30.1973 9.76221C30.1973 10.9741 29.2119 11.9595 28 11.9595C26.7881 11.9595 25.8027 10.9741 25.8027 9.76221ZM5.19727 12.936C4.79297 12.936 4.46484 12.6079 4.46484 12.2036V11.2271C4.46484 10.8228 4.79297 10.4946 5.19727 10.4946H19.543C19.4854 10.8931 19.4551 11.3013 19.4551 11.7153C19.4551 12.1294 19.4854 12.5376 19.543 12.936H5.19727ZM44.3574 49.9966V51.7056H11.6426V49.9966C11.6426 49.5923 11.9707 49.2642 12.375 49.2642H43.625C44.0293 49.2642 44.3574 49.5923 44.3574 49.9966ZM33.127 47.7993H22.873V42.2319C26.1992 41.2339 29.8008 41.2339 33.127 42.2319V47.7993ZM29.2207 40.0581C28.4082 40.0073 27.5918 40.0073 26.7793 40.0581V20.1724C27.1777 20.23 27.5859 20.2603 28 20.2603C28.4141 20.2603 28.8223 20.23 29.2207 20.1724V40.0571V40.0581ZM28 18.7954C25.5391 18.7954 23.3682 17.5327 22.0986 15.6216C23 14.2642 24.3555 13.2456 25.9062 12.7642C26.5 13.1802 27.2217 13.4243 28 13.4243C28.7783 13.4243 29.5 13.1792 30.0938 12.7642C31.6436 13.2456 32.999 14.2642 33.9014 15.6216C32.6318 17.5327 30.4609 18.7954 28 18.7954ZM51.5352 12.2036C51.5352 12.6079 51.207 12.936 50.8027 12.936H36.457C36.5146 12.5376 36.5449 12.1294 36.5449 11.7153C36.5449 11.3013 36.5146 10.8931 36.457 10.4946H50.8027C51.207 10.4946 51.5352 10.8228 51.5352 11.2271V12.2036Z" fill="#0B3546"/>
<path d="M24.8262 44.1499V45.1265C24.8262 46.0688 25.5928 46.8354 26.5352 46.8354H29.4648C30.4072 46.8354 31.1738 46.0688 31.1738 45.1265V44.1499C31.1738 43.2075 30.4072 42.4409 29.4648 42.4409H26.5352C25.5928 42.4409 24.8262 43.2075 24.8262 44.1499ZM29.709 44.1499V45.1265C29.709 45.2612 29.5996 45.3706 29.4648 45.3706H26.5352C26.4004 45.3706 26.291 45.2612 26.291 45.1265V44.1499C26.291 44.0151 26.4004 43.9058 26.5352 43.9058H29.4648C29.5996 43.9058 29.709 44.0151 29.709 44.1499Z" fill="#0B3546"/>
<path d="M48.5674 23.1899L46.7363 15.8657H45.2256L47.0566 23.1899H48.5674Z" fill="#48B96D"/>
<path d="M41.7314 15.8657H40.2207L38.3896 23.1899H39.9004L41.7314 15.8657Z" fill="#48B96D"/>
<path d="M51.291 24.6548H35.666C35.2617 24.6548 34.9336 24.9829 34.9336 25.3872V27.5845H52.0234V25.3872C52.0234 24.9829 51.6953 24.6548 51.291 24.6548Z" fill="#48B96D"/>
<path d="M34.9336 30.27C34.9336 32.8276 37.0146 34.9087 39.5723 34.9087H47.3848C49.9424 34.9087 52.0234 32.8276 52.0234 30.27V29.0493H34.9336V30.27Z" fill="#48B96D"/>
<path d="M17.6104 23.1899L15.7793 15.8657H14.2686L16.0996 23.1899H17.6104Z" fill="#48B96D"/>
<path d="M10.7744 15.8657H9.26367L7.43262 23.1899H8.94336L10.7744 15.8657Z" fill="#48B96D"/>
<path d="M20.334 24.6548H4.70898C4.30469 24.6548 3.97656 24.9829 3.97656 25.3872V27.5845H21.0664V25.3872C21.0664 24.9829 20.7383 24.6548 20.334 24.6548Z" fill="#48B96D"/>
<path d="M3.97656 30.27C3.97656 32.8276 6.05762 34.9087 8.61523 34.9087H16.4277C18.9854 34.9087 21.0664 32.8276 21.0664 30.27V29.0493H3.97656V30.27Z" fill="#48B96D"/>
</g>
<defs>
<clipPath id="clip0_198_5046">
<rect width="50" height="50" fill="white" transform="translate(3 3.17041)"/>
</clipPath>
</defs>
</svg>
