<svg width="56" height="57" viewBox="0 0 56 57" fill="none" xmlns="http://www.w3.org/2000/svg">
<path d="M37.3627 28.1704C37.3627 23.0079 33.1627 18.8079 28.0002 18.8079C22.8377 18.8079 18.6377 23.0079 18.6377 28.1704C18.6377 33.3329 22.8377 37.5329 28.0002 37.5329C33.1627 37.5329 37.3627 33.3329 37.3627 28.1704ZM27.9393 21.6266C27.9486 21.6266 27.9564 21.6235 27.9658 21.6235C28.4033 21.8094 29.3893 23.5454 29.6221 26.7641H26.3768C26.6096 23.5516 27.5814 21.8188 27.9393 21.6266ZM29.6221 29.5766C29.3908 32.7891 28.4189 34.5219 28.0611 34.7157C28.0518 34.7157 28.0439 34.7188 28.0346 34.7188C27.5971 34.5329 26.6111 32.7969 26.3783 29.5782L29.6221 29.5766ZM31.7564 33.5204C32.1221 32.3219 32.3471 30.961 32.4361 29.5766H34.3893C34.033 31.2 33.0736 32.5938 31.7564 33.5204ZM34.3908 26.7641H32.4377C32.3486 25.3797 32.1236 24.0188 31.758 22.8204C33.0736 23.7469 34.033 25.1407 34.3908 26.7641ZM24.2439 22.8204C23.8783 24.0188 23.6533 25.3797 23.5643 26.7641H21.6111C21.9674 25.1407 22.9268 23.7469 24.2439 22.8204ZM21.6096 29.5766H23.5627C23.6518 30.961 23.8768 32.3219 24.2424 33.5204C22.9268 32.5938 21.9674 31.2 21.6096 29.5766Z" fill="#48B96D"/>
<path d="M19.9781 43.1188C17.05 41.547 14.6547 39.1501 13.0531 36.1954C12.4391 35.0438 11.9641 33.8517 11.6344 32.6345C13.3375 31.8657 14.5312 30.1579 14.5312 28.1704C14.5312 25.4657 12.3312 23.2642 9.625 23.2642C6.91875 23.2642 4.71875 25.4657 4.71875 28.1704C4.71875 30.6048 6.50469 32.6142 8.83281 32.997C9.21875 34.547 9.79531 36.0657 10.575 37.5282C12.4438 40.9751 15.2344 43.7657 18.6469 45.597C18.8594 45.711 19.0859 45.7642 19.3109 45.7642C19.8125 45.7642 20.2969 45.4954 20.5516 45.022C20.9187 44.3392 20.6625 43.486 19.9781 43.1188ZM7.53125 28.1704C7.53125 27.0157 8.47187 26.0767 9.625 26.0767C10.7781 26.0767 11.7188 27.0157 11.7188 28.1704C11.7188 29.3251 10.7797 30.2642 9.625 30.2642C8.47031 30.2642 7.53125 29.3251 7.53125 28.1704Z" fill="#0B3546"/>
<path d="M44.8532 35.6188C44.1657 35.2501 43.3157 35.5079 42.9485 36.1923C41.3767 39.1204 38.9798 41.5157 36.0251 43.1173C34.8735 43.7313 33.6813 44.2063 32.4642 44.536C31.6938 42.8329 29.9876 41.6391 27.9985 41.6391C25.2938 41.6391 23.0923 43.8391 23.0923 46.5454C23.0923 49.2516 25.2954 51.4516 28.0001 51.4516C30.4345 51.4516 32.4438 49.6657 32.8267 47.3376C34.3767 46.9516 35.8954 46.3751 37.3579 45.5954C40.8048 43.7266 43.5954 40.936 45.4267 37.5235C45.7938 36.8391 45.5376 35.986 44.8532 35.6188ZM28.0001 48.6391C26.8454 48.6391 25.9063 47.6985 25.9063 46.5454C25.9063 45.3923 26.847 44.4516 28.0001 44.4516C29.1532 44.4516 30.0938 45.3907 30.0938 46.5454C30.0938 47.7001 29.1548 48.6391 28.0001 48.6391Z" fill="#0B3546"/>
<path d="M11.1468 20.722C11.3593 20.836 11.5858 20.8892 11.8108 20.8892C12.3124 20.8892 12.7968 20.6204 13.0515 20.147C14.6233 17.2188 17.0202 14.8235 19.9749 13.222C21.1265 12.6079 22.3186 12.1329 23.5358 11.8032C24.3046 13.5079 26.0124 14.7017 27.9999 14.7017C30.7046 14.7017 32.9061 12.5017 32.9061 9.79541C32.9061 7.08916 30.7046 4.88916 27.9999 4.88916C25.5655 4.88916 23.5561 6.6751 23.1733 9.00322C21.6233 9.38916 20.1046 9.96572 18.6421 10.7454C15.1952 12.6142 12.4061 15.4063 10.5733 18.8173C10.2061 19.5017 10.4624 20.3548 11.1468 20.722ZM27.9999 7.70166C29.1546 7.70166 30.0936 8.64228 30.0936 9.79541C30.0936 10.9485 29.1546 11.8892 27.9999 11.8892C26.8452 11.8892 25.9061 10.9501 25.9061 9.79541C25.9061 8.64072 26.8452 7.70166 27.9999 7.70166Z" fill="#0B3546"/>
<path d="M47.1669 23.3439C46.781 21.7939 46.2044 20.2751 45.4263 18.8173C43.5951 15.4048 40.8044 12.6142 37.3576 10.747C36.6748 10.3767 35.8216 10.6314 35.4513 11.3126C35.081 11.9955 35.3357 12.8486 36.0185 13.2189C38.981 14.8236 41.3779 17.2205 42.9482 20.1439C43.5623 21.2955 44.0373 22.4876 44.3669 23.7048C42.6638 24.4751 41.4701 26.1814 41.4701 28.1705C41.4701 30.8751 43.6701 33.0767 46.3763 33.0767C49.0826 33.0767 51.281 30.8751 51.281 28.1705C51.281 25.7361 49.4951 23.7267 47.1669 23.3439ZM46.3748 30.2642C45.2201 30.2642 44.281 29.3236 44.281 28.1705C44.281 27.0173 45.2201 26.0767 46.3748 26.0767C47.5294 26.0767 48.4685 27.0158 48.4685 28.1705C48.4685 29.3251 47.5294 30.2642 46.3748 30.2642Z" fill="#0B3546"/>
</svg>
