<svg width="56" height="56" viewBox="0 0 56 56" fill="none" xmlns="http://www.w3.org/2000/svg">
<path d="M20.9688 8.46875C14.0764 8.46875 8.46875 14.0764 8.46875 20.9688C8.46875 27.8611 14.0764 33.4688 20.9688 33.4688C27.8611 33.4688 33.4688 27.8611 33.4688 20.9688C33.4688 14.0764 27.8611 8.46875 20.9688 8.46875ZM20.9688 31.9062C14.9377 31.9062 10.0312 26.9998 10.0312 20.9688C10.0312 14.9377 14.9377 10.0312 20.9688 10.0312C26.9998 10.0312 31.9062 14.9377 31.9062 20.9688C31.9062 26.9998 26.9998 31.9062 20.9688 31.9062Z" fill="#0B3546"/>
<path d="M20.9688 13.1562C20.5373 13.1562 20.1875 13.5061 20.1875 13.9375C20.1875 14.3689 20.5373 14.7188 20.9688 14.7188C24.4149 14.7188 27.2188 17.5226 27.2188 20.9688C27.2188 21.4002 27.5686 21.75 28 21.75C28.4314 21.75 28.7812 21.4002 28.7812 20.9688C28.7812 16.6608 25.2767 13.1562 20.9688 13.1562Z" fill="#48B96D"/>
<path d="M41.3282 32.4895C40.4142 31.5755 38.928 31.5755 38.014 32.4895L34.9817 29.4572C36.4899 26.9769 37.375 24.0778 37.375 20.9688C37.375 11.9222 30.0153 4.5625 20.9688 4.5625C11.9222 4.5625 4.5625 11.9222 4.5625 20.9688C4.5625 30.0153 11.9222 37.375 20.9688 37.375C24.0778 37.375 26.9769 36.4899 29.4572 34.9817L32.4895 38.014C31.5755 38.9276 31.5755 40.4145 32.4895 41.3282L40.7682 49.6068C41.9488 50.7875 43.5182 51.4375 45.1875 51.4375C46.8572 51.4375 48.4266 50.7875 49.6068 49.6068C50.7875 48.4266 51.4375 46.8572 51.4375 45.1875C51.4375 43.5182 50.7875 41.9488 49.6068 40.7682L41.3282 32.4895ZM6.125 20.9688C6.125 12.7839 12.7839 6.125 20.9688 6.125C29.1536 6.125 35.8125 12.7839 35.8125 20.9688C35.8125 29.1536 29.1536 35.8125 20.9688 35.8125C12.7839 35.8125 6.125 29.1536 6.125 20.9688ZM30.7754 34.0904C32.0329 33.1481 33.1481 32.0328 34.0904 30.7754L36.9092 33.5942L33.5942 36.9092L30.7754 34.0904ZM48.5021 48.5021C47.6167 49.3875 46.4399 49.875 45.1875 49.875C43.9355 49.875 42.7583 49.3875 41.8729 48.5021L33.5942 40.2234C33.2898 39.9186 33.2898 39.4231 33.5942 39.1187L39.1187 33.5942C39.2709 33.442 39.4712 33.3657 39.6711 33.3657C39.871 33.3657 40.0712 33.442 40.2234 33.5942L48.5021 41.8729C49.3875 42.7583 49.875 43.9355 49.875 45.1875C49.875 46.4399 49.3875 47.6167 48.5021 48.5021Z" fill="#0B3546"/>
<path d="M41.2812 10.8094C43.4369 10.8094 45.1906 12.5631 45.1906 14.7188C45.1906 15.1502 45.5404 15.5 45.9718 15.5C46.4033 15.5 46.7531 15.1502 46.7531 14.7188C46.7531 12.5631 48.504 10.8094 50.6562 10.8094C51.0877 10.8094 51.4375 10.4596 51.4375 10.0282C51.4375 9.59675 51.0877 9.24695 50.6562 9.24695C48.504 9.24695 46.7531 7.496 46.7531 5.34375C46.7531 4.9123 46.4033 4.5625 45.9718 4.5625C45.5404 4.5625 45.1906 4.9123 45.1906 5.34375C45.1906 7.496 43.4369 9.24695 41.2812 9.24695C40.8498 9.24695 40.5 9.59675 40.5 10.0282C40.5 10.4596 40.8498 10.8094 41.2812 10.8094ZM45.9714 8.1567C46.433 8.9227 47.0773 9.567 47.8433 10.0286C47.0773 10.4909 46.433 11.136 45.9714 11.9027C45.5091 11.136 44.864 10.4909 44.0973 10.0286C44.864 9.567 45.5091 8.9227 45.9714 8.1567Z" fill="#48B96D"/>
<path d="M14.7188 45.1844C12.5665 45.1844 10.8156 43.4335 10.8156 41.2812C10.8156 40.8498 10.4658 40.5 10.0343 40.5C9.60286 40.5 9.25305 40.8498 9.25305 41.2812C9.25305 43.4335 7.49944 45.1844 5.34375 45.1844C4.9123 45.1844 4.5625 45.5342 4.5625 45.9657C4.5625 46.3971 4.9123 46.7469 5.34375 46.7469C7.49944 46.7469 9.25305 48.5006 9.25305 50.6562C9.25305 51.0877 9.60286 51.4375 10.0343 51.4375C10.4658 51.4375 10.8156 51.0877 10.8156 50.6562C10.8156 48.5006 12.5665 46.7469 14.7188 46.7469C15.1502 46.7469 15.5 46.3971 15.5 45.9657C15.5 45.5342 15.1502 45.1844 14.7188 45.1844ZM10.0339 47.8402C9.57158 47.0735 8.92652 46.4284 8.15976 45.9661C8.92652 45.5045 9.57158 44.8602 10.0339 44.0942C10.4955 44.8602 11.1398 45.5045 11.9058 45.9661C11.1398 46.4284 10.4955 47.0735 10.0339 47.8402Z" fill="#48B96D"/>
</svg>
