<svg width="22" height="20" viewBox="0 0 22 20" fill="none" xmlns="http://www.w3.org/2000/svg">
<path d="M20.6797 8.98584C21.1719 9.19092 21.459 9.68311 21.5 10.1753C21.5 10.7085 21.1719 11.2007 20.6797 11.4058L2.30469 19.2808C2.14062 19.3628 1.97656 19.4038 1.8125 19.4038C1.44336 19.4038 1.07422 19.2397 0.828125 18.9526C0.458984 18.5835 0.376953 17.9683 0.623047 17.4761L4.4375 10.1753L0.623047 2.91553C0.376953 2.42334 0.458984 1.80811 0.828125 1.39795C1.07422 1.11084 1.44336 0.987793 1.8125 0.987793C1.97656 0.987793 2.14062 1.02881 2.30469 1.11084L20.6797 8.98584ZM3.20703 3.65381L6.11914 9.19092H16.209L3.20703 3.65381ZM6.11914 11.1597L3.20703 16.7378L16.209 11.1597H6.11914Z" fill="black" fill-opacity="0.9"/>
</svg>
